<svg width="24" height="24" viewBox="0 0 24 24" fill="none" xmlns="http://www.w3.org/2000/svg">
<path d="M3 21C2.45 21 1.97933 20.8043 1.588 20.413C1.19667 20.0217 1.00067 19.5507 1 19V7C1 6.45 1.196 5.97934 1.588 5.588C1.98 5.19667 2.45067 5.00067 3 5H6.15L7.4 3.65C7.58333 3.45 7.80433 3.29167 8.063 3.175C8.32167 3.05834 8.59233 3 8.875 3H13C13.2833 3 13.521 3.096 13.713 3.288C13.905 3.48 14.0007 3.71734 14 4C13.9993 4.28267 13.9033 4.52034 13.712 4.713C13.5207 4.90567 13.2833 5.00134 13 5H8.875L7.05 7H3V19H19V11C19 10.7167 19.096 10.4793 19.288 10.288C19.48 10.0967 19.7173 10.0007 20 10C20.2827 9.99934 20.5203 10.0953 20.713 10.288C20.9057 10.4807 21.0013 10.718 21 11V19C21 19.55 20.8043 20.021 20.413 20.413C20.0217 20.805 19.5507 21.0007 19 21H3ZM19 5H18C17.7167 5 17.4793 4.904 17.288 4.712C17.0967 4.52 17.0007 4.28267 17 4C16.9993 3.71734 17.0953 3.48 17.288 3.288C17.4807 3.096 17.718 3 18 3H19V2C19 1.71667 19.096 1.47934 19.288 1.288C19.48 1.09667 19.7173 1.00067 20 1C20.2827 0.999337 20.5203 1.09534 20.713 1.288C20.9057 1.48067 21.0013 1.718 21 2V3H22C22.2833 3 22.521 3.096 22.713 3.288C22.905 3.48 23.0007 3.71734 23 4C22.9993 4.28267 22.9033 4.52034 22.712 4.713C22.5207 4.90567 22.2833 5.00134 22 5H21V6C21 6.28334 20.904 6.521 20.712 6.713C20.52 6.905 20.2827 7.00067 20 7C19.7173 6.99934 19.48 6.90334 19.288 6.712C19.096 6.52067 19 6.28334 19 6V5ZM11 17.5C12.25 17.5 13.3127 17.0627 14.188 16.188C15.0633 15.3133 15.5007 14.2507 15.5 13C15.4993 11.7493 15.062 10.687 14.188 9.813C13.314 8.939 12.2513 8.50134 11 8.5C9.74867 8.49867 8.68633 8.93634 7.813 9.813C6.93967 10.6897 6.502 11.752 6.5 13C6.498 14.248 6.93567 15.3107 7.813 16.188C8.69033 17.0653 9.75267 17.5027 11 17.5ZM11 15.5C10.3 15.5 9.70833 15.2583 9.225 14.775C8.74167 14.2917 8.5 13.7 8.5 13C8.5 12.3 8.74167 11.7083 9.225 11.225C9.70833 10.7417 10.3 10.5 11 10.5C11.7 10.5 12.2917 10.7417 12.775 11.225C13.2583 11.7083 13.5 12.3 13.5 13C13.5 13.7 13.2583 14.2917 12.775 14.775C12.2917 15.2583 11.7 15.5 11 15.5Z" fill="#151414"/>
</svg>
