<svg width="24" height="24" viewBox="0 0 24 24" fill="none" xmlns="http://www.w3.org/2000/svg">
<path d="M12 2.5C13.3168 2.5 14.5493 2.74984 15.7021 3.24707C16.8645 3.74844 17.8697 4.42571 18.7217 5.27832C19.5739 6.13117 20.2512 7.13681 20.7539 8.29883C21.2521 9.45047 21.5019 10.6821 21.5 11.999C21.4981 13.3169 21.2483 14.5498 20.7529 15.7021C20.2537 16.8634 19.5761 17.8681 18.7217 18.7207C17.8666 19.5739 16.8612 20.2518 15.7012 20.7539C14.5516 21.2514 13.3193 21.5013 12 21.5C10.6818 21.5 9.44919 21.2501 8.29785 20.7529C7.13685 20.2516 6.13174 19.5744 5.27832 18.7217C4.42499 17.869 3.74774 16.8638 3.24707 15.7021C2.7505 14.55 2.50067 13.3176 2.5 12C2.49936 10.6827 2.74931 9.44982 3.24707 8.29785C3.74911 7.1361 4.42629 6.13101 5.27832 5.27832C6.1303 4.42571 7.13546 3.74844 8.29785 3.24707C9.4507 2.74984 10.6832 2.5 12 2.5ZM5.30664 6.79102C4.72303 7.5338 4.27516 8.34884 3.96484 9.23438C3.65386 10.1219 3.49933 11.0448 3.5 12C3.5 14.3631 4.32595 16.3826 5.97168 18.0283C7.61741 19.6741 9.63686 20.5 12 20.5C12.9549 20.5 13.8774 20.3453 14.7646 20.0352C15.6504 19.7255 16.4661 19.2777 17.209 18.6934L17.6514 18.3447L17.2539 17.9463L5.65527 6.34766L5.30664 6.79102ZM12 3.5C11.0451 3.5 10.1226 3.65469 9.23535 3.96484C8.34959 4.27451 7.5339 4.72228 6.79102 5.30664L6.34863 5.65527L6.74609 6.05371L18.3447 17.6523L18.6934 17.209C19.277 16.4662 19.7248 15.6512 20.0352 14.7656C20.3461 13.8781 20.5007 12.9552 20.5 12L20.4902 11.5605C20.3934 9.38563 19.5711 7.51446 18.0283 5.97168C16.3826 4.32595 14.3631 3.5 12 3.5Z" fill="#151414" stroke="#E62720"/>
</svg>
