<svg width="24" height="24" viewBox="0 0 24 24" fill="none" xmlns="http://www.w3.org/2000/svg">
<path d="M20.25 7.6875H17.0625V4.5C17.0625 4.1519 16.9242 3.81806 16.6781 3.57192C16.4319 3.32578 16.0981 3.1875 15.75 3.1875H3.75C3.4019 3.1875 3.06806 3.32578 2.82192 3.57192C2.57578 3.81806 2.4375 4.1519 2.4375 4.5V16.5C2.43762 16.6062 2.4678 16.7102 2.52454 16.7999C2.58128 16.8897 2.66226 16.9615 2.75813 17.0072C2.83348 17.0438 2.91621 17.0627 3 17.0625C3.1286 17.0626 3.25334 17.0186 3.35344 16.9378L6.91031 14.0625H6.9375V17.25C6.9375 17.5981 7.07578 17.9319 7.32192 18.1781C7.56806 18.4242 7.9019 18.5625 8.25 18.5625H17.0897L20.6466 21.4378C20.7467 21.5186 20.8714 21.5626 21 21.5625C21.0838 21.5628 21.1665 21.5438 21.2419 21.5072C21.3377 21.4615 21.4187 21.3897 21.4755 21.2999C21.5322 21.2102 21.5624 21.1062 21.5625 21V9C21.5625 8.6519 21.4242 8.31806 21.1781 8.07192C20.9319 7.82578 20.5981 7.6875 20.25 7.6875ZM6.71063 12.9375C6.58202 12.9374 6.45728 12.9814 6.35719 13.0622L3.5625 15.3216V4.5C3.5625 4.45027 3.58225 4.40258 3.61742 4.36742C3.65258 4.33225 3.70027 4.3125 3.75 4.3125H15.75C15.7997 4.3125 15.8474 4.33225 15.8826 4.36742C15.9177 4.40258 15.9375 4.45027 15.9375 4.5V12.75C15.9375 12.7997 15.9177 12.8474 15.8826 12.8826C15.8474 12.9177 15.7997 12.9375 15.75 12.9375H6.71063ZM20.4375 19.8216L17.6428 17.5622C17.5427 17.4814 17.418 17.4374 17.2894 17.4375H8.25C8.20027 17.4375 8.15258 17.4177 8.11742 17.3826C8.08225 17.3474 8.0625 17.2997 8.0625 17.25V14.0625H15.75C16.0981 14.0625 16.4319 13.9242 16.6781 13.6781C16.9242 13.4319 17.0625 13.0981 17.0625 12.75V8.8125H20.25C20.2997 8.8125 20.3474 8.83225 20.3826 8.86742C20.4177 8.90258 20.4375 8.95027 20.4375 9V19.8216Z" fill="#151414"/>
<circle cx="7.5" cy="8.69995" r="1" fill="#151414"/>
<circle cx="11.5" cy="8.69995" r="1" fill="#151414"/>
</svg>
