<svg width="24" height="24" viewBox="0 0 24 24" fill="none" xmlns="http://www.w3.org/2000/svg">
<path d="M7.55554 9.92621C7.55554 9.29747 7.80531 8.69448 8.24989 8.24989C8.69448 7.80531 9.29747 7.55554 9.92621 7.55554H17.6293C17.9406 7.55554 18.2489 7.61686 18.5365 7.736C18.8242 7.85514 19.0855 8.02976 19.3056 8.24989C19.5258 8.47003 19.7004 8.73137 19.8195 9.01899C19.9387 9.30662 20 9.61489 20 9.92621V17.6293C20 17.9406 19.9387 18.2489 19.8195 18.5365C19.7004 18.8242 19.5258 19.0855 19.3056 19.3056C19.0855 19.5258 18.8242 19.7004 18.5365 19.8195C18.2489 19.9387 17.9406 20 17.6293 20H9.92621C9.61489 20 9.30662 19.9387 9.01899 19.8195C8.73137 19.7004 8.47003 19.5258 8.24989 19.3056C8.02976 19.0855 7.85514 18.8242 7.736 18.5365C7.61686 18.2489 7.55554 17.9406 7.55554 17.6293V9.92621Z" stroke="#151414" stroke-width="2" stroke-linecap="round" stroke-linejoin="round"/>
<path d="M4.89956 16.2107C4.62667 16.0556 4.39969 15.8311 4.24169 15.5599C4.08369 15.2887 4.0003 14.9805 4 14.6667V5.77778C4 4.8 4.8 4 5.77778 4H14.6667C15.3333 4 15.696 4.34222 16 4.88889" stroke="#151414" stroke-width="2" stroke-linecap="round" stroke-linejoin="round"/>
</svg>
