<svg width="24" height="24" viewBox="0 0 24 24" fill="none" xmlns="http://www.w3.org/2000/svg">
<path d="M12 16.95C14.097 16.95 15.87 15.636 16.599 13.8H7.401C8.121 15.636 9.903 16.95 12 16.95ZM8.85 11.1C9.20804 11.1 9.55142 10.9578 9.80459 10.7046C10.0578 10.4514 10.2 10.108 10.2 9.75C10.2 9.39196 10.0578 9.04858 9.80459 8.79541C9.55142 8.54223 9.20804 8.4 8.85 8.4C8.49196 8.4 8.14858 8.54223 7.89541 8.79541C7.64223 9.04858 7.5 9.39196 7.5 9.75C7.5 10.108 7.64223 10.4514 7.89541 10.7046C8.14858 10.9578 8.49196 11.1 8.85 11.1ZM15.15 11.1C15.508 11.1 15.8514 10.9578 16.1046 10.7046C16.3578 10.4514 16.5 10.108 16.5 9.75C16.5 9.39196 16.3578 9.04858 16.1046 8.79541C15.8514 8.54223 15.508 8.4 15.15 8.4C14.792 8.4 14.4486 8.54223 14.1954 8.79541C13.9422 9.04858 13.8 9.39196 13.8 9.75C13.8 10.108 13.9422 10.4514 14.1954 10.7046C14.4486 10.9578 14.792 11.1 15.15 11.1ZM12 19.2C10.0904 19.2 8.25909 18.4414 6.90883 17.0912C5.55857 15.7409 4.8 13.9096 4.8 12C4.8 10.0904 5.55857 8.25909 6.90883 6.90883C8.25909 5.55857 10.0904 4.8 12 4.8C13.9096 4.8 15.7409 5.55857 17.0912 6.90883C18.4414 8.25909 19.2 10.0904 19.2 12C19.2 13.9096 18.4414 15.7409 17.0912 17.0912C15.7409 18.4414 13.9096 19.2 12 19.2ZM12 3C7.023 3 3 7.05 3 12C3 14.3869 3.94821 16.6761 5.63604 18.364C6.47177 19.1997 7.46392 19.8626 8.55585 20.3149C9.64778 20.7672 10.8181 21 12 21C14.3869 21 16.6761 20.0518 18.364 18.364C20.0518 16.6761 21 14.3869 21 12C21 10.8181 20.7672 9.64778 20.3149 8.55585C19.8626 7.46392 19.1997 6.47177 18.364 5.63604C17.5282 4.80031 16.5361 4.13738 15.4442 3.68508C14.3522 3.23279 13.1819 3 12 3Z" fill="#151414"/>
</svg>
