<svg width="24" height="24" viewBox="0 0 24 24" fill="none" xmlns="http://www.w3.org/2000/svg">
<path d="M7.93364 6.23182L5.04545 9.13636C2.32091 11.8445 2.32091 16.2464 5.04545 18.9545C7.77 21.6627 12.1555 21.6791 14.8636 18.9545L19.7727 14.0455C20.5909 13.2518 20.5909 11.9509 19.7727 11.1491C19.6909 11.0509 19.5845 10.9609 19.47 10.8873L19.7727 10.5682C20.5909 9.77455 20.5909 8.47364 19.7727 7.67182C19.6582 7.54091 19.5027 7.42636 19.3636 7.33636C19.6745 6.58364 19.5355 5.68364 18.9218 5.07C18.21 4.35818 17.1055 4.28455 16.3036 4.84091C16.1371 4.58447 15.9157 4.36833 15.6552 4.20816C15.3948 4.04799 15.102 3.94781 14.798 3.91491C14.494 3.88201 14.1866 3.9172 13.8979 4.01793C13.6092 4.11866 13.3466 4.2824 13.1291 4.49727L11.0755 6.55091C11.0018 6.43636 10.9118 6.33 10.8136 6.23182C10.4275 5.85792 9.91112 5.64886 9.37364 5.64886C8.83616 5.64886 8.31975 5.85792 7.93364 6.23182ZM9.08727 7.39364C9.25091 7.23 9.50455 7.23 9.66818 7.39364C9.83182 7.55727 9.83182 7.81091 9.66818 7.97455L7.06636 10.5764C7.52602 11.0366 7.7842 11.6605 7.7842 12.3109C7.7842 12.9614 7.52602 13.5852 7.06636 14.0455L8.22 15.1991C8.78272 14.6364 9.16912 13.9219 9.33188 13.143C9.49464 12.364 9.4267 11.5545 9.13636 10.8136L14.2909 5.65909C14.4545 5.49545 14.7082 5.49545 14.8636 5.65909C15.0191 5.82273 15.0355 6.07636 14.8636 6.24L11.1082 10.0036L12.2618 11.1573L17.1791 6.24C17.3427 6.07636 17.5964 6.07636 17.76 6.24C17.9236 6.40364 17.9236 6.65727 17.76 6.82091L12.8427 11.7382L13.9964 12.8918L18.0464 8.84182C18.21 8.67818 18.4636 8.67818 18.6273 8.84182C18.7909 9.00545 18.7909 9.25909 18.6273 9.42273L13.9964 14.0455L15.15 15.2073L18.0464 12.3109C18.21 12.1473 18.4636 12.1473 18.6273 12.3109C18.7909 12.4745 18.7909 12.7282 18.6273 12.8918L13.7182 17.8091C11.64 19.8873 8.27727 19.8873 6.19909 17.8091C4.12091 15.7309 4.12091 12.3682 6.19909 10.29L9.08727 7.39364ZM21 16.0909C21 18.7991 18.7991 21 16.0909 21V19.7727C18.1364 19.7727 19.7727 18.1364 19.7727 16.0909H21ZM3 7.90909C3 5.20091 5.20091 3 7.90909 3V4.22727C5.86364 4.22727 4.22727 5.86364 4.22727 7.90909H3Z" fill="#151414"/>
</svg>
