<svg width="24" height="24" viewBox="0 0 24 24" fill="none" xmlns="http://www.w3.org/2000/svg">
<path d="M17 9.29976V7.49976C17 6.30628 16.4732 5.16169 15.5355 4.31778C14.5979 3.47386 13.3261 2.99976 12 2.99976C10.6739 2.99976 9.40215 3.47386 8.46447 4.31778C7.52678 5.16169 7 6.30628 7 7.49976V9.29976C6.20435 9.29976 5.44129 9.58422 4.87868 10.0906C4.31607 10.5969 4 11.2837 4 11.9998V18.2998C4 19.0158 4.31607 19.7026 4.87868 20.2089C5.44129 20.7153 6.20435 20.9998 7 20.9998H17C17.7956 20.9998 18.5587 20.7153 19.1213 20.2089C19.6839 19.7026 20 19.0158 20 18.2998V11.9998C20 11.2837 19.6839 10.5969 19.1213 10.0906C18.5587 9.58422 17.7956 9.29976 17 9.29976ZM9 7.49976C9 6.78367 9.31607 6.09692 9.87868 5.59057C10.4413 5.08422 11.2044 4.79976 12 4.79976C12.7956 4.79976 13.5587 5.08422 14.1213 5.59057C14.6839 6.09692 15 6.78367 15 7.49976V9.29976H9V7.49976ZM18 18.2998C18 18.5385 17.8946 18.7674 17.7071 18.9362C17.5196 19.1049 17.2652 19.1998 17 19.1998H7C6.73478 19.1998 6.48043 19.1049 6.29289 18.9362C6.10536 18.7674 6 18.5385 6 18.2998V11.9998C6 11.7611 6.10536 11.5321 6.29289 11.3634C6.48043 11.1946 6.73478 11.0998 7 11.0998H17C17.2652 11.0998 17.5196 11.1946 17.7071 11.3634C17.8946 11.5321 18 11.7611 18 11.9998V18.2998Z" fill="#151414"/>
</svg>
