<svg width="24" height="24" viewBox="0 0 24 24" fill="none" xmlns="http://www.w3.org/2000/svg">
<path d="M12 3C16.9707 3 21 7.0293 21 12C21 16.9707 16.9707 21 12 21C7.0293 21 3 16.9707 3 12C3 7.0293 7.0293 3 12 3ZM12 4.8C10.0904 4.8 8.25909 5.55857 6.90883 6.90883C5.55857 8.25909 4.8 10.0904 4.8 12C4.8 13.9096 5.55857 15.7409 6.90883 17.0912C8.25909 18.4414 10.0904 19.2 12 19.2C13.9096 19.2 15.7409 18.4414 17.0912 17.0912C18.4414 15.7409 19.2 13.9096 19.2 12C19.2 10.0904 18.4414 8.25909 17.0912 6.90883C15.7409 5.55857 13.9096 4.8 12 4.8ZM12 15.6C12.2387 15.6 12.4676 15.6948 12.6364 15.8636C12.8052 16.0324 12.9 16.2613 12.9 16.5C12.9 16.7387 12.8052 16.9676 12.6364 17.1364C12.4676 17.3052 12.2387 17.4 12 17.4C11.7613 17.4 11.5324 17.3052 11.3636 17.1364C11.1948 16.9676 11.1 16.7387 11.1 16.5C11.1 16.2613 11.1948 16.0324 11.3636 15.8636C11.5324 15.6948 11.7613 15.6 12 15.6ZM12 7.05C12.7581 7.05002 13.4924 7.31402 14.077 7.79664C14.6616 8.27926 15.0598 8.95038 15.2034 9.69472C15.3469 10.4391 15.2268 11.2101 14.8636 11.8755C14.5004 12.5409 13.9169 13.0591 13.2132 13.341C13.109 13.3793 13.015 13.4412 12.9387 13.5219C12.8991 13.5669 12.8928 13.6245 12.8937 13.6839L12.9 13.8C12.8997 14.0294 12.8119 14.25 12.6544 14.4168C12.497 14.5836 12.2817 14.684 12.0527 14.6975C11.8237 14.7109 11.5983 14.6364 11.4224 14.4892C11.2464 14.3419 11.1334 14.1331 11.1063 13.9053L11.1 13.8V13.575C11.1 12.5373 11.937 11.9145 12.5436 11.6706C12.7905 11.572 13.0058 11.408 13.1666 11.1963C13.3273 10.9845 13.4273 10.733 13.4558 10.4687C13.4844 10.2044 13.4404 9.93731 13.3286 9.69613C13.2168 9.45494 13.0414 9.24876 12.8213 9.09973C12.6011 8.9507 12.3446 8.86445 12.0791 8.85024C11.8137 8.83603 11.5493 8.8944 11.3146 9.01908C11.0798 9.14376 10.8834 9.33004 10.7465 9.55792C10.6096 9.7858 10.5373 10.0467 10.5375 10.3125C10.5375 10.5512 10.4427 10.7801 10.2739 10.9489C10.1051 11.1177 9.87619 11.2125 9.6375 11.2125C9.39881 11.2125 9.16989 11.1177 9.0011 10.9489C8.83232 10.7801 8.7375 10.5512 8.7375 10.3125C8.7375 9.44723 9.08123 8.6174 9.69306 8.00556C10.3049 7.39373 11.1347 7.05 12 7.05Z" fill="#151414"/>
</svg>
