<svg width="24" height="24" viewBox="0 0 24 24" fill="none" xmlns="http://www.w3.org/2000/svg">
<path d="M15.3428 15.3508L20 20.0079M15.3428 15.3508C14.7336 15.9731 14.0071 16.4675 13.2052 16.8072C12.4033 17.1469 11.542 17.3242 10.6712 17.3288C9.8003 17.3335 8.93718 17.1654 8.13172 16.8342C7.32626 16.5031 6.59446 16.0155 5.97866 15.3998C5.36287 14.784 4.8753 14.0522 4.54418 13.2467C4.21306 12.4412 4.04495 11.5781 4.04959 10.7073C4.05423 9.83641 4.23152 8.97512 4.5712 8.17323C4.91089 7.37134 5.40622 6.64478 6.02854 6.03558C7.26816 4.82209 8.93646 4.14662 10.6712 4.15586C12.4058 4.16509 14.0669 4.8583 15.2935 6.08493C16.5201 7.31155 17.2133 8.97257 17.2226 10.7073C17.2318 12.4419 16.5563 14.1111 15.3428 15.3508Z" stroke="#151414" stroke-width="2" stroke-linecap="square"/>
</svg>
