<svg width="24" height="24" viewBox="0 0 24 24" fill="none" xmlns="http://www.w3.org/2000/svg">
<path d="M6.19326 4.08859C5.55126 3.76864 4.84593 4.38071 5.02926 5.0978L6.37326 10.3372C6.40695 10.4689 6.47697 10.5874 6.57463 10.6779C6.67229 10.7684 6.79329 10.827 6.9226 10.8463L13.5119 11.8284C13.7026 11.8563 13.7026 12.1442 13.5119 12.1727L6.92326 13.1541C6.79396 13.1735 6.67296 13.2321 6.5753 13.3226C6.47763 13.4131 6.40761 13.5316 6.37393 13.6632L5.02926 18.9054C4.84593 19.6218 5.55126 20.2339 6.19326 19.9147L20.5253 12.7862C21.1579 12.4718 21.1579 11.5314 20.5253 11.2164L6.19326 4.08859Z" fill="#FEFEFE"/>
</svg>
