<svg width="24" height="24" viewBox="0 0 24 24" fill="none" xmlns="http://www.w3.org/2000/svg">
<path d="M11.9999 16.4443H8.4445C5.9308 16.4443 4.67306 16.4443 3.89264 15.663C3.11133 14.8826 3.11133 13.6248 3.11133 11.1111V9.33341C3.11133 6.81971 3.11133 5.56197 3.89264 4.78155C4.67306 4.00024 5.9308 4.00024 8.4445 4.00024H15.5554C18.0691 4.00024 19.3268 4.00024 20.1073 4.78155C20.8415 5.51486 20.8859 6.66861 20.8886 8.88898" stroke="#151414" stroke-width="1.9" stroke-linecap="round" stroke-linejoin="round"/>
<path d="M10.2221 19.9998H8.44434M10.2221 19.9998C10.5757 19.9998 10.9148 19.8593 11.1648 19.6092C11.4149 19.3592 11.5554 19.0201 11.5554 18.6665V16.4443H11.9998M10.2221 19.9998H12.4442V16.4443H11.9998M11.9998 16.4443V19.9998M15.5552 13.7777V17.3332C15.5552 18.59 15.5552 19.2185 15.9463 19.6087C16.3365 19.9998 16.965 19.9998 18.2218 19.9998C19.4787 19.9998 20.1071 19.9998 20.4973 19.6087C20.8884 19.2185 20.8884 18.59 20.8884 17.3332V13.7777C20.8884 12.5209 20.8884 11.8925 20.4973 11.5022C20.108 11.1111 19.4796 11.1111 18.2218 11.1111C16.9641 11.1111 16.3365 11.1111 15.9463 11.5022C15.5552 11.8916 15.5552 12.52 15.5552 13.7777Z" stroke="#151414" stroke-width="1.9" stroke-linecap="round" stroke-linejoin="round"/>
</svg>
