<svg width="24" height="24" viewBox="0 0 24 24" fill="none" xmlns="http://www.w3.org/2000/svg">
<path fill-rule="evenodd" clip-rule="evenodd" d="M12 8.72703C11.132 8.72703 10.2996 9.07183 9.68583 9.68559C9.07208 10.2993 8.72727 11.1318 8.72727 11.9998C8.72727 12.8677 9.07208 13.7002 9.68583 14.3139C10.2996 14.9277 11.132 15.2725 12 15.2725C12.868 15.2725 13.7004 14.9277 14.3142 14.3139C14.9279 13.7002 15.2727 12.8677 15.2727 11.9998C15.2727 11.1318 14.9279 10.2993 14.3142 9.68559C13.7004 9.07183 12.868 8.72703 12 8.72703ZM10.8429 10.8427C11.1498 10.5358 11.566 10.3634 12 10.3634C12.434 10.3634 12.8502 10.5358 13.1571 10.8427C13.464 11.1495 13.6364 11.5658 13.6364 11.9998C13.6364 12.4337 13.464 12.85 13.1571 13.1568C12.8502 13.4637 12.434 13.6361 12 13.6361C11.566 13.6361 11.1498 13.4637 10.8429 13.1568C10.536 12.85 10.3636 12.4337 10.3636 11.9998C10.3636 11.5658 10.536 11.1495 10.8429 10.8427Z" fill="#151414"/>
<path fill-rule="evenodd" clip-rule="evenodd" d="M11.1663 2.99976C10.7946 2.99976 10.4696 3.25025 10.375 3.60967L9.96042 5.18483L8.64312 5.74014L7.63475 4.84302C7.31099 4.55498 6.81879 4.56934 6.51237 4.87576L4.876 6.51212C4.57957 6.80855 4.55515 7.28108 4.81945 7.60648L5.70319 8.69459L5.16126 10.0278L3.63217 10.3848C3.26192 10.4713 3 10.8014 3 11.1816V12.8179C3 13.1869 3.24692 13.5102 3.60285 13.6073L5.18332 14.0384L5.74013 15.3593L4.8439 16.3643C4.55524 16.688 4.56932 17.1807 4.876 17.4874L6.51237 19.1238C6.8092 19.4206 7.28251 19.4446 7.60787 19.1794L8.6956 18.2927L9.99607 18.8276L10.3885 20.3819C10.4803 20.7452 10.8071 20.9998 11.1818 20.9998H12.8182C13.1927 20.9998 13.5195 20.7454 13.6114 20.3823L14.0048 18.8274L15.3488 18.2707C15.4841 18.3841 15.6392 18.5173 15.7936 18.6517C15.9469 18.7853 16.0895 18.9111 16.1938 19.0037C16.2459 19.0499 16.2883 19.0877 16.3177 19.1139L16.3621 19.1537C16.6856 19.4439 17.1803 19.4311 17.4876 19.1238L19.124 17.4874C19.4251 17.1863 19.4449 16.7045 19.1695 16.3797L18.2782 15.3287L18.8297 13.9966L20.3876 13.5918C20.7482 13.4981 21 13.1726 21 12.7999V11.1816C21 10.8074 20.7462 10.4809 20.3836 10.3887L18.8353 9.99476L18.2852 8.66594L19.1703 7.61884C19.4449 7.29398 19.4248 6.8129 19.124 6.51212L17.4876 4.87576C17.1856 4.57376 16.7021 4.55485 16.3775 4.83236L15.3381 5.72076L13.9625 5.15517L13.5563 3.60993C13.4618 3.25039 13.1368 2.99976 12.765 2.99976H11.1663ZM17.434 16.8632L16.8743 17.423L16.8681 17.4176C16.566 17.1545 16.1767 16.8216 15.9572 16.6646C15.7274 16.5004 15.4292 16.4662 15.1683 16.5743L12.9993 17.4727C12.7606 17.5715 12.5826 17.7774 12.5192 18.0279L12.1812 19.3634H11.8191L11.4817 18.0274C11.4183 17.7761 11.2395 17.5697 10.9997 17.4711L8.86753 16.594C8.58989 16.4798 8.272 16.5268 8.03931 16.7165L7.14682 17.444L6.57947 16.8767L7.30555 16.0625C7.51575 15.8268 7.57152 15.4911 7.44884 15.2001L6.53657 13.036C6.43896 12.8045 6.24038 12.6306 5.99797 12.5645L4.63636 12.1931V11.8307L5.94574 11.5251C6.20441 11.4647 6.41766 11.2825 6.51769 11.0364L7.40132 8.86248C7.51371 8.58599 7.46662 8.27025 7.27846 8.03857L6.55477 7.14753L7.1237 6.57859L7.94125 7.30594C8.17695 7.51564 8.51221 7.57114 8.80291 7.4486L10.967 6.53632C11.2009 6.43772 11.3758 6.23614 11.4404 5.99066L11.797 4.63612H12.1341L12.4834 5.96504C12.5486 6.21309 12.7264 6.41621 12.9636 6.51375L15.1784 7.42438C15.4624 7.54113 15.7878 7.48909 16.0212 7.28961L16.8656 6.56785L17.4349 7.13715L16.7138 7.99021C16.5162 8.22399 16.4656 8.54851 16.5827 8.83133L17.4802 10.9995C17.5789 11.238 17.7843 11.4159 18.0344 11.4795L19.3636 11.8177V12.1672L18.0239 12.5153C17.7755 12.5799 17.5718 12.7572 17.4737 12.9942L16.5753 15.164C16.458 15.4473 16.509 15.7724 16.7073 16.0062L17.434 16.8632Z" fill="#151414"/>
</svg>
