<svg width="24" height="24" viewBox="0 0 24 24" fill="none" xmlns="http://www.w3.org/2000/svg">
<path d="M0 5.98734V8.56414H3.752L0 5.98734ZM3.10933 20.3334H8.66667V16.5169L3.10933 20.3334ZM15.3333 16.5175V20.3334H20.89L15.3333 16.5175ZM0 15.1026V17.6794L3.75333 15.1026H0ZM20.8913 3.33337H15.3333V7.14987L20.8913 3.33337ZM24 17.6801V15.1026H20.246L24 17.6801ZM24 8.56414V5.98734L20.2473 8.56414H24ZM8.66667 3.33337H3.10933L8.66667 7.14987V3.33337Z" fill="#00247D"/>
<path d="M16.8024 15.1318L23.3342 19.6183C23.6526 19.2955 23.8818 18.8984 24 18.4645L19.1475 15.1318H16.8024ZM8.63758 15.1318H7.19765L0.666499 19.6176C1.0169 19.9673 1.46616 20.2173 1.9699 20.3334L8.63758 15.7539V15.1318ZM15.3631 8.53497H16.803L23.3342 4.04913C22.9775 3.69475 22.5258 3.4466 22.0314 3.33337L15.3631 7.91289V8.53497ZM7.19765 8.53497L0.666499 4.04913C0.347822 4.3718 0.118411 4.76894 0 5.20291L4.85246 8.53497H7.19765Z" fill="#E62720"/>
<path d="M24 13.7949H14V20.3334H15.3333V16.5175L20.89 20.3334H21.3333C21.6875 20.3331 22.038 20.2636 22.3644 20.129C22.6909 19.9944 22.9867 19.7974 23.2347 19.5494L16.76 15.1026H19.0847L23.8947 18.4058C23.9567 18.1855 24 17.9573 24 17.718V17.6801L20.246 15.1026H24V13.7949ZM0 13.7949V15.1026H3.75333L0 17.6794V17.718C0 18.4313 0.292667 19.0767 0.765333 19.5488L7.23933 15.1026H8.66667V15.7192L2.05733 20.2575C2.25333 20.3033 2.456 20.3334 2.66667 20.3334H3.10933L8.66667 16.5169V20.3334H10V13.7949H0ZM24 5.94876C24.0006 5.26347 23.7256 4.60561 23.2347 4.11799L16.7607 8.56414H15.3333V7.94757L21.9433 3.40857C21.7436 3.36052 21.5389 3.33529 21.3333 3.33337H20.8913L15.3333 7.14987V3.33337H14V9.87184H24V8.56414H20.2473L24 5.98734V5.94876ZM8.66667 3.33337V7.14987L3.10933 3.33337H2.66667C2.3125 3.33377 1.96196 3.40336 1.63551 3.53807C1.30907 3.67279 1.01325 3.86993 0.765333 4.11799L7.23933 8.56414H4.91467L0.104667 5.26157C0.0387712 5.48505 0.00357173 5.71615 0 5.94876L0 5.98734L3.752 8.56414H0V9.87184H10V3.33337H8.66667Z" fill="#EEEEEE"/>
<path d="M14 9.87184V3.33337H10V9.87184H0V13.7949H10V20.3334H14V13.7949H24V9.87184H14Z" fill="#E62720"/>
</svg>
